<svg xmlns="http://www.w3.org/2000/svg" viewBox="0 0 120 120" fill="none">
  <circle cx="60" cy="60" r="54" fill="#f1f5e9" stroke="#73916b" stroke-width="1.3"/>
  <circle cx="60" cy="60" r="47" stroke="#9bb08a" stroke-width=".8"/>
  <path d="M24 83c14-1 20-11 21-27" stroke="#64865d" stroke-width="1.5" stroke-linecap="round"/>
  <g fill="#8aa579">
    <path d="M30 81c-8-1-12-6-11-12 8 1 12 5 11 12ZM36 75c-8-3-10-8-8-14 7 3 10 8 8 14ZM41 66c-6-4-7-10-3-15 6 4 7 10 3 15ZM31 80c2-8 7-11 13-9-2 7-7 10-13 9ZM38 73c3-8 8-10 13-7-3 7-8 9-13 7Z"/>
  </g>
  <text x="66" y="70" text-anchor="middle" fill="#285b43" font-family="'Noto Serif CJK SC','Songti SC',SimSun,serif" font-size="43">循</text>
  <circle cx="83" cy="87" r="11" fill="#285b43"/>
  <path d="m78 87 3.5 3.5 6.5-7" stroke="#f4f6ec" stroke-width="1.8" stroke-linecap="round" stroke-linejoin="round"/>
</svg>
